<svg width="292.208" height="70.893" xmlns="http://www.w3.org/2000/svg">

 <g>
  <title>background</title>
  <rect fill="none" id="canvas_background" height="402" width="582" y="-1" x="-1"/>
 </g>
 <g>
  <title>Layer 1</title>
  <g id="组_23">
   <path fill="#d61918" d="m35.445993,-0.000003a35.446,35.446 0 0 0 -15.446,67.35a35.357,35.357 0 0 0 25.353,-12.39a21.906,21.906 0 1 1 12,-19.537l0,0.024c0,0.114 0,0.231 0,0.349c0,0.158 0,0.317 -0.008,0.475c0,0.2 -0.012,0.394 -0.02,0.592c0,0.078 0,0.155 -0.008,0.232c-0.008,0.219 -0.024,0.434 -0.037,0.645c0,0.057 -0.008,0.11 -0.008,0.166c-0.016,0.232 -0.036,0.463 -0.057,0.69c0,0.033 0,0.061 -0.008,0.094a35.466,35.466 0 0 1 -28.526,31.554a35.448,35.448 0 1 0 6.769,-70.244" id="路径_51"/>
   <path fill="#212221" d="m82.707993,37.201997c0,-16.014 11.766,-27.78 28.434,-27.78c14.3,0 25.085,8.661 27.784,21.327l-13.976,0c-2.126,-5.474 -7.11,-9.07 -13.81,-9.07c-9.067,0 -15.033,6.538 -15.033,15.523s5.966,15.524 15.033,15.524c6.7,0 11.684,-3.592 13.81,-9.067l13.974,0c-2.7,12.663 -13.483,21.323 -27.784,21.323c-16.668,0 -28.434,-11.765 -28.434,-27.78" id="路径_52"/>
   <path fill="#212221" d="m146.602993,5.908997l12.256,0l0,21.98a11.832,11.832 0 0 1 10.049,-5.393c8.5,0 17.569,5.718 17.569,20.507l0,20.919l-12.256,0l0,-20.919c0,-6.372 -3.105,-9.067 -7.683,-9.067c-4.412,0 -7.679,2.857 -7.679,9.067l0,20.919l-12.256,0l0,-58.013z" id="路径_53"/>
   <path fill="#212221" d="m192.849993,43.738997c0,-12.256 8.989,-21.246 21.733,-21.246s21.489,8.99 21.489,21.246l0,3.434l-30.475,0c0.978,4.736 4.574,6.862 8.986,6.862c3.514,0 6.128,-0.734 7.682,-2.942l12.667,0c-2.618,8.332 -10.3,13.892 -20.349,13.892c-12.744,0 -21.733,-8.989 -21.733,-21.246m30.641,-4.33c-1.388,-4.168 -4.659,-5.966 -8.908,-5.966s-7.517,1.879 -8.742,5.966l17.65,0z" id="路径_54"/>
   <path fill="#212221" d="m257.154993,36.466997l-16.747,-25.982l15.6,0l10.049,17.159l10.051,-17.159l15.28,0l-16.916,25.982l17.736,27.455l-15.69,0l-10.864,-18.713l-10.946,18.713l-15.2,0l17.647,-27.455z" id="路径_55"/>
  </g>
 </g>
</svg>